<?xml version="1.0" encoding="UTF-8" standalone="no"?>
<!-- Created with Inkscape (http://www.inkscape.org/) -->

<svg
   xmlns:dc="http://purl.org/dc/elements/1.1/"
   xmlns:cc="http://creativecommons.org/ns#"
   xmlns:rdf="http://www.w3.org/1999/02/22-rdf-syntax-ns#"
   xmlns:svg="http://www.w3.org/2000/svg"
   xmlns="http://www.w3.org/2000/svg"
   xmlns:sodipodi="http://sodipodi.sourceforge.net/DTD/sodipodi-0.dtd"
   xmlns:inkscape="http://www.inkscape.org/namespaces/inkscape"
   width="512"
   height="512"
   id="svg4358"
   version="1.1"
   inkscape:version="0.48.3.1 r9886"
   sodipodi:docname="índex.svg"
   inkscape:export-filename="/datos/usuarios/profesores/rrubiom/Baixades/achievement_squares_maniac.png"
   inkscape:export-xdpi="90"
   inkscape:export-ydpi="90">
  <defs
     id="defs4360" />
  <sodipodi:namedview
     id="base"
     pagecolor="#ffffff"
     bordercolor="#666666"
     borderopacity="1.0"
     inkscape:pageopacity="0.0"
     inkscape:pageshadow="2"
     inkscape:zoom="0.30009657"
     inkscape:cx="562.71218"
     inkscape:cy="548.46561"
     inkscape:document-units="px"
     inkscape:current-layer="capa1"
     showgrid="false"
     inkscape:window-width="1187"
     inkscape:window-height="615"
     inkscape:window-x="67"
     inkscape:window-y="80"
     inkscape:window-maximized="0" />
  <metadata
     id="metadata4363">
    <rdf:RDF>
      <cc:Work
         rdf:about="">
        <dc:format>image/svg+xml</dc:format>
        <dc:type
           rdf:resource="http://purl.org/dc/dcmitype/StillImage" />
        <dc:title></dc:title>
      </cc:Work>
    </rdf:RDF>
  </metadata>
  <g
     inkscape:label="Capa 1"
     inkscape:groupmode="layer"
     id="capa1"
     transform="translate(0,-540.36218)">
    <g
       id="g3039"
       transform="translate(-129.71423,329.71426)">
      <path
         transform="matrix(9.6557929,0,0,0.94202864,2330.95,204.81981)"
         d="m -175.46333,277.9407 c 0,147.15313 -11.63817,266.44431 -25.99457,266.44431 -14.3564,0 -25.99457,-119.29118 -25.99457,-266.44431 0,-147.15312 11.63817,-266.444301 25.99457,-266.444301 14.3564,0 25.99457,119.291181 25.99457,266.444301 z"
         sodipodi:ry="266.44431"
         sodipodi:rx="25.994568"
         sodipodi:cy="277.9407"
         sodipodi:cx="-201.4579"
         id="path7080"
         style="fill:#b3b3b3;fill-opacity:1;stroke:#333333;stroke-width:3.31690788;stroke-miterlimit:4;stroke-opacity:1;stroke-dasharray:none"
         sodipodi:type="arc" />
      <path
         transform="matrix(-0.36164301,-0.93659785,-0.93659785,0.36164301,829.7733,-179.37434)"
         sodipodi:open="true"
         sodipodi:end="1.7826616"
         sodipodi:start="0"
         d="m -280.30924,553.7793 c 0,30.45453 -22.28803,55.1428 -49.7817,55.1428 -3.51896,0 -7.02801,-0.4133 -10.46829,-1.23297"
         sodipodi:ry="55.142803"
         sodipodi:rx="49.7817"
         sodipodi:cy="553.7793"
         sodipodi:cx="-330.09094"
         id="path6601-8"
         style="fill:none;stroke:#232323;stroke-width:6;stroke-miterlimit:4;stroke-opacity:0.99230766;stroke-dasharray:none"
         sodipodi:type="arc" />
      <g
         transform="matrix(6.6691146,0,0,6.6691146,-39.24848,-2040.834)"
         style="stroke:none"
         id="g3536">
        <rect
           style="fill:#333333;fill-opacity:1;stroke:none"
           id="rect6465"
           width="51.473343"
           height="24.433958"
           x="36.403435"
           y="358.55981"
           ry="12.216979" />
        <rect
           style="fill:#333333;fill-opacity:1;stroke:none"
           id="rect6465-3"
           width="43.359287"
           height="20.709087"
           x="338.77551"
           y="-201.87663"
           ry="10.354544"
           transform="matrix(-0.39349564,0.91932648,-0.97421682,-0.22561381,0,0)" />
        <rect
           style="fill:#333333;fill-opacity:1;stroke:none"
           id="rect6465-3-9"
           width="43.272106"
           height="20.795969"
           x="368.1044"
           y="-88.84156"
           ry="10.397985"
           transform="matrix(0.40631202,0.9137344,0.97208266,-0.23463864,0,0)" />
      </g>
      <rect
         transform="matrix(0.72943911,-0.68404575,0.68404575,0.72943911,0,0)"
         y="588.83679"
         x="31.863239"
         height="14.749593"
         width="45.681213"
         id="rect7011"
         style="fill:#009b58;fill-opacity:1;stroke:none" />
      <rect
         transform="matrix(0.68404575,0.72943911,-0.72943911,0.68404575,0,0)"
         y="-31.863239"
         x="603.58643"
         height="14.749593"
         width="45.681213"
         id="rect7011-9"
         style="fill:#d3412c;fill-opacity:1;stroke:none" />
      <rect
         transform="matrix(0.68404575,0.72943911,-0.72943911,0.68404575,0,0)"
         y="-92.294052"
         x="603.58643"
         height="14.749593"
         width="45.681213"
         id="rect7011-0"
         style="fill:#1469eb;fill-opacity:1;stroke:none" />
      <rect
         transform="matrix(0.72943911,-0.68404575,0.68404575,0.72943911,0,0)"
         y="649.2677"
         x="31.863239"
         height="14.749593"
         width="45.681213"
         id="rect7011-1"
         style="fill:#ffb608;fill-opacity:1;stroke:none" />
      <path
         transform="matrix(0.53354204,0,0,0.60360309,535.05589,326.98272)"
         d="m -82.714211,92.34127 c 0,20.93749 -19.201989,37.91068 -42.888849,37.91068 -23.68685,0 -42.88885,-16.97319 -42.88885,-37.91068 0,-20.937489 19.202,-37.910678 42.88885,-37.910678 23.68686,0 42.888849,16.973189 42.888849,37.910678 z"
         sodipodi:ry="37.910679"
         sodipodi:rx="42.888847"
         sodipodi:cy="92.34127"
         sodipodi:cx="-125.60306"
         id="path6837"
         style="fill:#d3412c;fill-opacity:1;stroke:#000000;stroke-width:6;stroke-miterlimit:4;stroke-opacity:0;stroke-dasharray:none"
         sodipodi:type="arc" />
      <path
         transform="matrix(0.53354204,0,0,0.60360309,535.05589,405.65626)"
         d="m -82.714211,92.34127 c 0,20.93749 -19.201989,37.91068 -42.888849,37.91068 -23.68685,0 -42.88885,-16.97319 -42.88885,-37.91068 0,-20.937489 19.202,-37.910678 42.88885,-37.910678 23.68686,0 42.888849,16.973189 42.888849,37.910678 z"
         sodipodi:ry="37.910679"
         sodipodi:rx="42.888847"
         sodipodi:cy="92.34127"
         sodipodi:cx="-125.60306"
         id="path6837-4"
         style="fill:#1469eb;fill-opacity:1;stroke:#000000;stroke-width:6;stroke-miterlimit:4;stroke-opacity:0;stroke-dasharray:none"
         sodipodi:type="arc" />
      <path
         transform="matrix(0.53354204,0,0,0.60360309,574.39267,366.31949)"
         d="m -82.714211,92.34127 c 0,20.93749 -19.201989,37.91068 -42.888849,37.91068 -23.68685,0 -42.88885,-16.97319 -42.88885,-37.91068 0,-20.937489 19.202,-37.910678 42.88885,-37.910678 23.68686,0 42.888849,16.973189 42.888849,37.910678 z"
         sodipodi:ry="37.910679"
         sodipodi:rx="42.888847"
         sodipodi:cy="92.34127"
         sodipodi:cx="-125.60306"
         id="path6837-9"
         style="fill:#009b58;fill-opacity:1;stroke:#000000;stroke-width:6;stroke-miterlimit:4;stroke-opacity:0;stroke-dasharray:none"
         sodipodi:type="arc" />
      <path
         transform="matrix(0.53354204,0,0,0.60360309,495.71912,366.31949)"
         d="m -82.714211,92.34127 c 0,20.93749 -19.201989,37.91068 -42.888849,37.91068 -23.68685,0 -42.88885,-16.97319 -42.88885,-37.91068 0,-20.937489 19.202,-37.910678 42.88885,-37.910678 23.68686,0 42.888849,16.973189 42.888849,37.910678 z"
         sodipodi:ry="37.910679"
         sodipodi:rx="42.888847"
         sodipodi:cy="92.34127"
         sodipodi:cx="-125.60306"
         id="path6837-99"
         style="fill:#ffb608;fill-opacity:1;stroke:#000000;stroke-width:6;stroke-miterlimit:4;stroke-opacity:0;stroke-dasharray:none"
         sodipodi:type="arc" />
      <path
         transform="matrix(0.63373695,0,0,0.9623413,628.4534,421.17396)"
         d="m -237.42041,41.793701 c 0,5.710225 -7.0293,10.339276 -15.70038,10.339276 -8.67108,0 -15.70038,-4.629051 -15.70038,-10.339276 0,-5.710224 7.0293,-10.339276 15.70038,-10.339276 8.67108,0 15.70038,4.629052 15.70038,10.339276 z"
         sodipodi:ry="10.339276"
         sodipodi:rx="15.700382"
         sodipodi:cy="41.793701"
         sodipodi:cx="-253.12079"
         id="path6883"
         style="fill:#333333;fill-opacity:1;stroke:#000000;stroke-width:6;stroke-miterlimit:4;stroke-opacity:0;stroke-dasharray:none"
         sodipodi:type="arc" />
      <path
         transform="matrix(0.63373695,0,0,0.9623413,589.11661,381.83719)"
         d="m -237.42041,41.793701 c 0,5.710225 -7.0293,10.339276 -15.70038,10.339276 -8.67108,0 -15.70038,-4.629051 -15.70038,-10.339276 0,-5.710224 7.0293,-10.339276 15.70038,-10.339276 8.67108,0 15.70038,4.629052 15.70038,10.339276 z"
         sodipodi:ry="10.339276"
         sodipodi:rx="15.700382"
         sodipodi:cy="41.793701"
         sodipodi:cx="-253.12079"
         id="path6883-0"
         style="fill:#333333;fill-opacity:1;stroke:#000000;stroke-width:6;stroke-miterlimit:4;stroke-opacity:0;stroke-dasharray:none"
         sodipodi:type="arc" />
      <path
         transform="matrix(0.63373695,0,0,0.9623413,628.4534,342.50042)"
         d="m -237.42041,41.793701 c 0,5.710225 -7.0293,10.339276 -15.70038,10.339276 -8.67108,0 -15.70038,-4.629051 -15.70038,-10.339276 0,-5.710224 7.0293,-10.339276 15.70038,-10.339276 8.67108,0 15.70038,4.629052 15.70038,10.339276 z"
         sodipodi:ry="10.339276"
         sodipodi:rx="15.700382"
         sodipodi:cy="41.793701"
         sodipodi:cx="-253.12079"
         id="path6883-6"
         style="fill:#333333;fill-opacity:1;stroke:#000000;stroke-width:6;stroke-miterlimit:4;stroke-opacity:0;stroke-dasharray:none"
         sodipodi:type="arc" />
      <path
         transform="matrix(0.63373695,0,0,0.9623413,667.79018,381.83719)"
         d="m -237.42041,41.793701 c 0,5.710225 -7.0293,10.339276 -15.70038,10.339276 -8.67108,0 -15.70038,-4.629051 -15.70038,-10.339276 0,-5.710224 7.0293,-10.339276 15.70038,-10.339276 8.67108,0 15.70038,4.629052 15.70038,10.339276 z"
         sodipodi:ry="10.339276"
         sodipodi:rx="15.700382"
         sodipodi:cy="41.793701"
         sodipodi:cx="-253.12079"
         id="path6883-1"
         style="fill:#333333;fill-opacity:1;stroke:#000000;stroke-width:6;stroke-miterlimit:4;stroke-opacity:0;stroke-dasharray:none"
         sodipodi:type="arc" />
      <rect
         ry="3.915982"
         y="364.17944"
         x="290.34259"
         height="36.311836"
         width="32.759647"
         id="rect6917"
         style="fill:#b3b3b3;fill-opacity:1;stroke:#000000;stroke-width:2.85198474;stroke-miterlimit:4;stroke-opacity:0;stroke-dasharray:none" />
      <path
         transform="matrix(0.02386596,-0.22527656,0.36285025,0.01481724,276.17022,293.81941)"
         inkscape:transform-center-y="0.31883305"
         inkscape:transform-center-x="1.3847041"
         d="m -449.56702,159.3551 -40.73041,-20.13901 -40.7304,-20.13901 37.80609,-25.204061 37.8061,-25.204063 2.92431,45.343074 z"
         inkscape:randomized="0"
         inkscape:rounded="0"
         inkscape:flatsided="false"
         sodipodi:arg2="2.0299913"
         sodipodi:arg1="0.98279372"
         sodipodi:r2="26.233221"
         sodipodi:r1="52.466442"
         sodipodi:cy="115.70038"
         sodipodi:cx="-478.67017"
         sodipodi:sides="3"
         id="path6919"
         style="fill:#b3b3b3;fill-opacity:1;stroke:#000000;stroke-width:6;stroke-miterlimit:4;stroke-opacity:0;stroke-dasharray:none"
         sodipodi:type="star" />
      <rect
         transform="scale(1,-1)"
         ry="3.6773498"
         y="-482.52487"
         x="290.34259"
         height="34.099064"
         width="32.759647"
         id="rect6917-2"
         style="fill:#b3b3b3;fill-opacity:1;stroke:#000000;stroke-width:2.7637217;stroke-miterlimit:4;stroke-opacity:0;stroke-dasharray:none" />
      <path
         transform="matrix(0.02386596,0.21154865,0.36285025,-0.01391431,276.17022,548.59726)"
         inkscape:transform-center-y="0.31883305"
         inkscape:transform-center-x="1.3847041"
         d="m -449.56702,159.3551 -40.73041,-20.13901 -40.7304,-20.13901 37.80609,-25.204061 37.8061,-25.204063 2.92431,45.343074 z"
         inkscape:randomized="0"
         inkscape:rounded="0"
         inkscape:flatsided="false"
         sodipodi:arg2="2.0299913"
         sodipodi:arg1="0.98279372"
         sodipodi:r2="26.233221"
         sodipodi:r1="52.466442"
         sodipodi:cy="115.70038"
         sodipodi:cx="-478.67017"
         sodipodi:sides="3"
         id="path6919-9"
         style="fill:#b3b3b3;fill-opacity:1;stroke:#000000;stroke-width:6;stroke-miterlimit:4;stroke-opacity:0;stroke-dasharray:none"
         sodipodi:type="star" />
      <rect
         transform="matrix(0,-1,1,0,0,0)"
         ry="3.6773498"
         y="248.91026"
         x="-440.62006"
         height="34.099064"
         width="32.759647"
         id="rect6917-27"
         style="fill:#b3b3b3;fill-opacity:1;stroke:#000000;stroke-width:2.7637217;stroke-miterlimit:4;stroke-opacity:0;stroke-dasharray:none" />
      <path
         transform="matrix(-0.21154865,-0.02386596,0.01391431,-0.36285025,182.83784,454.79237)"
         inkscape:transform-center-y="0.31883305"
         inkscape:transform-center-x="1.3847041"
         d="m -449.56702,159.3551 -40.73041,-20.13901 -40.7304,-20.13901 37.80609,-25.204061 37.8061,-25.204063 2.92431,45.343074 z"
         inkscape:randomized="0"
         inkscape:rounded="0"
         inkscape:flatsided="false"
         sodipodi:arg2="2.0299913"
         sodipodi:arg1="0.98279372"
         sodipodi:r2="26.233221"
         sodipodi:r1="52.466442"
         sodipodi:cy="115.70038"
         sodipodi:cx="-478.67017"
         sodipodi:sides="3"
         id="path6919-0"
         style="fill:#b3b3b3;fill-opacity:1;stroke:#000000;stroke-width:6;stroke-miterlimit:4;stroke-opacity:0;stroke-dasharray:none"
         sodipodi:type="star" />
      <rect
         transform="matrix(0,-1,-1,0,0,0)"
         ry="3.617692"
         y="-364.55576"
         x="-440.62006"
         height="33.545872"
         width="32.759647"
         id="rect6917-23"
         style="fill:#b3b3b3;fill-opacity:1;stroke:#000000;stroke-width:2.74121213;stroke-miterlimit:4;stroke-opacity:0;stroke-dasharray:none" />
      <path
         transform="matrix(0.20811672,-0.02386596,-0.01368856,-0.36285025,429.55626,454.79237)"
         inkscape:transform-center-y="0.31883305"
         inkscape:transform-center-x="1.3847041"
         d="m -449.56702,159.3551 -40.73041,-20.13901 -40.7304,-20.13901 37.80609,-25.204061 37.8061,-25.204063 2.92431,45.343074 z"
         inkscape:randomized="0"
         inkscape:rounded="0"
         inkscape:flatsided="false"
         sodipodi:arg2="2.0299913"
         sodipodi:arg1="0.98279372"
         sodipodi:r2="26.233221"
         sodipodi:r1="52.466442"
         sodipodi:cy="115.70038"
         sodipodi:cx="-478.67017"
         sodipodi:sides="3"
         id="path6919-8"
         style="fill:#b3b3b3;fill-opacity:1;stroke:#000000;stroke-width:6;stroke-miterlimit:4;stroke-opacity:0;stroke-dasharray:none"
         sodipodi:type="star" />
      <path
         transform="matrix(0.60194528,0.71289901,1.1832696,-0.47382072,-86.377083,751.48387)"
         sodipodi:open="true"
         sodipodi:end="1.7826616"
         sodipodi:start="0"
         d="m -280.30924,553.7793 c 0,30.45453 -22.28803,55.1428 -49.7817,55.1428 -3.51896,0 -7.02801,-0.4133 -10.46829,-1.23297"
         sodipodi:ry="55.142803"
         sodipodi:rx="49.7817"
         sodipodi:cy="553.7793"
         sodipodi:cx="-330.09094"
         id="path6601-8-7"
         style="fill:none;stroke:#232323;stroke-width:6;stroke-miterlimit:4;stroke-opacity:0.99230766;stroke-dasharray:none"
         sodipodi:type="arc" />
    </g>
  </g>
</svg>
