<?xml version="1.0" encoding="UTF-8" standalone="no"?>
<!-- Created with Inkscape (http://www.inkscape.org/) -->

<svg
   xmlns:dc="http://purl.org/dc/elements/1.1/"
   xmlns:cc="http://creativecommons.org/ns#"
   xmlns:rdf="http://www.w3.org/1999/02/22-rdf-syntax-ns#"
   xmlns:svg="http://www.w3.org/2000/svg"
   xmlns="http://www.w3.org/2000/svg"
   xmlns:sodipodi="http://sodipodi.sourceforge.net/DTD/sodipodi-0.dtd"
   xmlns:inkscape="http://www.inkscape.org/namespaces/inkscape"
   width="512"
   height="512"
   id="svg2"
   version="1.1"
   inkscape:version="0.48.3.1 r9886"
   sodipodi:docname="Copa.svg">
  <defs
     id="defs4" />
  <sodipodi:namedview
     id="base"
     pagecolor="#ffffff"
     bordercolor="#666666"
     borderopacity="1.0"
     inkscape:pageopacity="0.0"
     inkscape:pageshadow="2"
     inkscape:zoom="0.35"
     inkscape:cx="375"
     inkscape:cy="520"
     inkscape:document-units="px"
     inkscape:current-layer="capa1"
     showgrid="false"
     inkscape:window-width="1215"
     inkscape:window-height="1000"
     inkscape:window-x="65"
     inkscape:window-y="24"
     inkscape:window-maximized="1" />
  <metadata
     id="metadata7">
    <rdf:RDF>
      <cc:Work
         rdf:about="">
        <dc:format>image/svg+xml</dc:format>
        <dc:type
           rdf:resource="http://purl.org/dc/dcmitype/StillImage" />
        <dc:title></dc:title>
      </cc:Work>
    </rdf:RDF>
  </metadata>
  <g
     inkscape:label="Capa 1"
     inkscape:groupmode="layer"
     id="capa1"
     transform="translate(0,-540.36218)">
    <g
       id="g4035"
       transform="matrix(0.99776023,0,0,0.99776023,-513.46292,-1722.6647)">
      <path
         transform="matrix(2.1115417,0,0,3.3085303,-374.19035,324.00266)"
         d="m 661.5807,665.15302 c 0,41.99473 -53.34198,76.03819 -119.14265,76.03819 -65.80067,0 -119.14265,-34.04346 -119.14265,-76.03819 0,-41.99474 53.34198,-76.0382 119.14265,-76.0382 65.80067,0 119.14265,34.04346 119.14265,76.0382 z"
         sodipodi:ry="76.038193"
         sodipodi:rx="119.14265"
         sodipodi:cy="665.15302"
         sodipodi:cx="542.43805"
         id="path3193"
         style="fill:#b3b3b3;fill-opacity:1;stroke:#333333;stroke-width:3.78340316;stroke-miterlimit:4;stroke-opacity:1;stroke-dasharray:none"
         sodipodi:type="arc" />
      <g
         transform="matrix(1.0998349,0,0,1.0998349,61.287189,819.89984)"
         id="g3195">
        <path
           style="fill:#3ea145;fill-opacity:1;stroke:none"
           d="m 661.26642,1379.7352 c 159.19199,74.9822 85.33514,188.5827 0.66523,298.9732 l 28.57763,-1.9009 c 156.97541,-107.8003 158.76947,-240.4432 -29.24286,-297.0723 z"
           id="rect4497-4-8-5"
           inkscape:connector-curvature="0"
           sodipodi:nodetypes="cccc" />
        <path
           style="fill:#e7423c;fill-opacity:1;stroke:none"
           d="m 703.41546,1481.3056 c 122.37554,98.3616 -12.67013,122.8498 -26.6082,195.4456 l -13.9377,0.8717 -33.75112,0.8709 c 75.19201,-91.2467 90.99887,-114.686 74.29702,-197.1882 z"
           id="rect4536-3-5-9"
           inkscape:connector-curvature="0"
           sodipodi:nodetypes="ccccc" />
        <path
           sodipodi:open="true"
           sodipodi:end="10.980955"
           sodipodi:start="4.7106164"
           transform="matrix(-1.8689953,0,0,2.1080528,1729.1481,2760.2343)"
           d="m 578.41403,-650.99993 c 26.78577,-0.0421 48.53841,19.1755 48.58589,42.92371 0.0475,23.74821 -21.62818,43.03406 -48.41395,43.07615 -26.78577,0.0421 -48.53841,-19.1755 -48.58589,-42.92371 -0.0471,-23.53276 21.25094,-42.7276 47.79091,-43.07163"
           sodipodi:ry="43"
           sodipodi:rx="48.5"
           sodipodi:cy="-608"
           sodipodi:cx="578.5"
           id="path3927-4-5-5-0-8-0-2-4"
           style="fill:#ffb608;fill-opacity:1;fill-rule:evenodd;stroke:none"
           sodipodi:type="arc" />
        <path
           sodipodi:open="true"
           sodipodi:end="10.980955"
           sodipodi:start="4.7106164"
           transform="matrix(19.69598,0,0,19.695981,-10034.636,11645.046)"
           d="m 542.43451,-517.875 c 0.93198,-0.002 1.68884,0.75253 1.69049,1.68451 0.002,0.93198 -0.75253,1.68884 -1.68451,1.69049 -0.93198,0.002 -1.68884,-0.75253 -1.69049,-1.68451 -0.002,-0.92352 0.7394,-1.67681 1.66283,-1.69031"
           sodipodi:ry="1.6875"
           sodipodi:rx="1.6875"
           sodipodi:cy="-516.1875"
           sodipodi:cx="542.4375"
           id="path3929-9-5-4-5-73-0-2-3"
           style="fill:#333333;fill-opacity:1"
           sodipodi:type="arc" />
        <path
           style="fill:#2e98ca;fill-opacity:1;stroke:none"
           d="m 631.33243,1381.079 c -159.19188,74.9822 -88.47114,187.2389 -3.80122,297.6294 l -28.57763,-1.9009 C 441.97828,1569.0072 443.32021,1437.7081 631.33243,1381.079 z"
           id="rect4497-0-7"
           inkscape:connector-curvature="0"
           sodipodi:nodetypes="cccc" />
        <path
           style="fill:#3ea145;fill-opacity:1;stroke:none"
           d="m 748.61428,1480.9889 c -74.02064,76.188 -80.45874,81.3534 -83.62655,153.3158 l -18.05563,23.9957 -18.37308,21.1439 c -9.00432,-81.3855 13.21771,-143.1952 120.05526,-198.4554 z"
           id="rect4536-3-0-8-5"
           inkscape:connector-curvature="0"
           sodipodi:nodetypes="ccccc" />
        <path
           style="fill:#e7423c;fill-opacity:1;stroke:none"
           d="m 628.88868,1482.4641 c -80.98967,68.5855 1.90098,106.378 -1.26683,178.3404 l 0.81878,18.0986 c -77.35568,-73.405 -106.3895,-141.1788 0.44805,-196.439 z"
           id="rect4536-32-3"
           inkscape:connector-curvature="0"
           sodipodi:nodetypes="cccc" />
        <path
           style="fill:#333333;fill-opacity:1;stroke:none"
           d="m 564.99304,1675.4607 157.11664,0 13.88738,44.8725 -183.99529,-1.3438 z"
           id="rect4599-5-0"
           inkscape:connector-curvature="0"
           sodipodi:nodetypes="ccccc" />
      </g>
    </g>
  </g>
</svg>
