<?xml version="1.0" encoding="UTF-8" standalone="no"?>
<!-- Created with Inkscape (http://www.inkscape.org/) -->

<svg
   xmlns:dc="http://purl.org/dc/elements/1.1/"
   xmlns:cc="http://creativecommons.org/ns#"
   xmlns:rdf="http://www.w3.org/1999/02/22-rdf-syntax-ns#"
   xmlns:svg="http://www.w3.org/2000/svg"
   xmlns="http://www.w3.org/2000/svg"
   xmlns:sodipodi="http://sodipodi.sourceforge.net/DTD/sodipodi-0.dtd"
   xmlns:inkscape="http://www.inkscape.org/namespaces/inkscape"
   id="svg2"
   version="1.1"
   inkscape:version="0.91 r13725"
   width="80"
   height="80"
   viewBox="0 0 80 80"
   sodipodi:docname="leaderboards_button.svg"
   inkscape:export-filename="/Users/rafa/AndroidStudioProjects/Squares/app/src/main/res/mipmap-hdpi/leaderboards_button.png"
   inkscape:export-xdpi="33.75"
   inkscape:export-ydpi="33.75">
  <metadata
     id="metadata8">
    <rdf:RDF>
      <cc:Work
         rdf:about="">
        <dc:format>image/svg+xml</dc:format>
        <dc:type
           rdf:resource="http://purl.org/dc/dcmitype/StillImage" />
        <dc:title></dc:title>
      </cc:Work>
    </rdf:RDF>
  </metadata>
  <defs
     id="defs6" />
  <sodipodi:namedview
     pagecolor="#ffffff"
     bordercolor="#666666"
     borderopacity="1"
     objecttolerance="10"
     gridtolerance="10"
     guidetolerance="10"
     inkscape:pageopacity="0"
     inkscape:pageshadow="2"
     inkscape:window-width="1754"
     inkscape:window-height="914"
     id="namedview4"
     showgrid="false"
     inkscape:zoom="7.89"
     inkscape:cx="43.406844"
     inkscape:cy="42.463878"
     inkscape:window-x="0"
     inkscape:window-y="0"
     inkscape:window-maximized="0"
     inkscape:current-layer="svg2" />
  <g
     id="g4184"
     transform="matrix(1.3003563,0,0,1.3003563,-3.0979942,2.6769732)"
     style="fill:#f9f9f9">
    <path
       sodipodi:nodetypes="cccccccccc"
       inkscape:connector-curvature="0"
       id="path4138"
       d="m 14.195183,44.608365 37.262357,0 6.210393,-21.292776 -12.674271,8.365019 -2.534854,-21.292776 -9.378961,19.13815 -9.378961,-18.884664 -2.915082,21.03929 -12.2940429,-8.618504 z"
       style="fill:#f9f9f9;fill-opacity:1;fill-rule:evenodd;stroke:none;stroke-width:1px;stroke-linecap:butt;stroke-linejoin:miter;stroke-opacity:1" />
    <path
       d="m 8.0421821,18.752858 a 3.3586819,3.3586819 0 0 1 3.3646199,3.341911 3.3586819,3.3586819 0 0 1 -3.3310893,3.375334 3.3586819,3.3586819 0 0 1 -3.3860143,-3.320232 3.3586819,3.3586819 0 0 1 3.3093412,-3.39666"
       sodipodi:open="true"
       sodipodi:end="4.6977631"
       sodipodi:start="4.7106087"
       sodipodi:ry="3.3586819"
       sodipodi:rx="3.3586819"
       sodipodi:cy="22.111534"
       sodipodi:cx="8.0481615"
       sodipodi:type="arc"
       id="path4140"
       style="opacity:1;fill:#f9f9f9;fill-opacity:1;stroke:none;stroke-width:1;stroke-linejoin:miter;stroke-miterlimit:4;stroke-dasharray:none;stroke-dashoffset:0;stroke-opacity:1" />
    <path
       style="opacity:1;fill:#f9f9f9;fill-opacity:1;stroke:none;stroke-width:1;stroke-linejoin:miter;stroke-miterlimit:4;stroke-dasharray:none;stroke-dashoffset:0;stroke-opacity:1"
       id="path4142"
       sodipodi:type="arc"
       sodipodi:cx="23.384029"
       sodipodi:cy="9.5640049"
       sodipodi:rx="3.3586819"
       sodipodi:ry="3.3586819"
       sodipodi:start="4.7106087"
       sodipodi:end="4.6977631"
       sodipodi:open="true"
       d="M 23.37805,6.2053283 A 3.3586819,3.3586819 0 0 1 26.742669,9.5472395 3.3586819,3.3586819 0 0 1 23.411581,12.922574 3.3586819,3.3586819 0 0 1 20.025566,9.6023417 3.3586819,3.3586819 0 0 1 23.334907,6.2056822" />
    <path
       d="M 42.642943,6.2053283 A 3.3586819,3.3586819 0 0 1 46.007562,9.5472395 3.3586819,3.3586819 0 0 1 42.676473,12.922574 3.3586819,3.3586819 0 0 1 39.290459,9.6023417 3.3586819,3.3586819 0 0 1 42.5998,6.2056822"
       sodipodi:open="true"
       sodipodi:end="4.6977631"
       sodipodi:start="4.7106087"
       sodipodi:ry="3.3586819"
       sodipodi:rx="3.3586819"
       sodipodi:cy="9.5640049"
       sodipodi:cx="42.648922"
       sodipodi:type="arc"
       id="path4144"
       style="opacity:1;fill:#f9f9f9;fill-opacity:1;stroke:none;stroke-width:1;stroke-linejoin:miter;stroke-miterlimit:4;stroke-dasharray:none;stroke-dashoffset:0;stroke-opacity:1" />
    <path
       style="opacity:1;fill:#f9f9f9;fill-opacity:1;stroke:none;stroke-width:1;stroke-linejoin:miter;stroke-miterlimit:4;stroke-dasharray:none;stroke-dashoffset:0;stroke-opacity:1"
       id="path4146"
       sodipodi:type="arc"
       sodipodi:cx="58.238277"
       sodipodi:cy="22.365019"
       sodipodi:rx="3.3586819"
       sodipodi:ry="3.3586819"
       sodipodi:start="4.7106087"
       sodipodi:end="4.6977631"
       sodipodi:open="true"
       d="m 58.232298,19.006342 a 3.3586819,3.3586819 0 0 1 3.36462,3.341911 3.3586819,3.3586819 0 0 1 -3.331089,3.375335 3.3586819,3.3586819 0 0 1 -3.386015,-3.320232 3.3586819,3.3586819 0 0 1 3.309342,-3.39666" />
    <rect
       y="47.016476"
       x="14.195183"
       height="4.1825094"
       width="37.135612"
       id="rect4148"
       style="opacity:1;fill:#f9f9f9;fill-opacity:1;stroke:none;stroke-width:1;stroke-linejoin:miter;stroke-miterlimit:4;stroke-dasharray:none;stroke-dashoffset:0;stroke-opacity:1" />
  </g>
</svg>
