<?xml version="1.0" encoding="UTF-8" standalone="no"?>
<!-- Created with Inkscape (http://www.inkscape.org/) -->

<svg
   xmlns:dc="http://purl.org/dc/elements/1.1/"
   xmlns:cc="http://creativecommons.org/ns#"
   xmlns:rdf="http://www.w3.org/1999/02/22-rdf-syntax-ns#"
   xmlns:svg="http://www.w3.org/2000/svg"
   xmlns="http://www.w3.org/2000/svg"
   xmlns:sodipodi="http://sodipodi.sourceforge.net/DTD/sodipodi-0.dtd"
   xmlns:inkscape="http://www.inkscape.org/namespaces/inkscape"
   width="356"
   height="468"
   id="svg3919"
   version="1.1"
   inkscape:version="0.48.3.1 r9886"
   sodipodi:docname="Nou document 5">
  <defs
     id="defs3921" />
  <sodipodi:namedview
     id="base"
     pagecolor="#ffffff"
     bordercolor="#666666"
     borderopacity="1.0"
     inkscape:pageopacity="0.0"
     inkscape:pageshadow="2"
     inkscape:zoom="0.49497475"
     inkscape:cx="572.97873"
     inkscape:cy="-134.68513"
     inkscape:document-units="px"
     inkscape:current-layer="capa1"
     showgrid="false"
     inkscape:window-width="1215"
     inkscape:window-height="1000"
     inkscape:window-x="65"
     inkscape:window-y="24"
     inkscape:window-maximized="1" />
  <metadata
     id="metadata3924">
    <rdf:RDF>
      <cc:Work
         rdf:about="">
        <dc:format>image/svg+xml</dc:format>
        <dc:type
           rdf:resource="http://purl.org/dc/dcmitype/StillImage" />
        <dc:title></dc:title>
      </cc:Work>
    </rdf:RDF>
  </metadata>
  <g
     inkscape:label="Capa 1"
     inkscape:groupmode="layer"
     id="capa1"
     transform="translate(0,-584.36218)">
    <g
       id="g3964"
       transform="matrix(0.99739049,0,0,0.99927455,-201.00838,292.09633)">
      <rect
         style="fill:#ececec;fill-opacity:1;fill-rule:evenodd;stroke:none"
         id="rect3909-1-9-0"
         width="300"
         height="300"
         x="230.00197"
         y="292.47803"
         ry="66.812309"
         rx="66.81131" />
      <rect
         style="fill:#b7ac4d;fill-opacity:0.71923062;fill-rule:evenodd;stroke:none"
         id="rect3913-45-0-5"
         width="300"
         height="300"
         x="230.00197"
         y="292.47803"
         ry="66.812309"
         rx="66.811325" />
      <rect
         style="fill:#546f77;fill-opacity:1"
         id="rect3917-0-2-2"
         width="210.46982"
         height="38.67614"
         x="274.14847"
         y="336.26904" />
      <rect
         style="fill:#ad6131;fill-opacity:1"
         id="rect3919-0-6-3"
         width="210.96077"
         height="38.58614"
         x="336.07397"
         y="-485.04105"
         transform="matrix(0,1,-1,0,0,0)" />
      <rect
         style="fill:#b13434;fill-opacity:1"
         id="rect3921-01-4-3"
         width="210.46982"
         height="38.67614"
         x="274.0928"
         y="508.47388" />
      <rect
         style="fill:#6d8c56;fill-opacity:1"
         id="rect3923-0-9-7"
         width="210.96077"
         height="38.58614"
         x="336.00659"
         y="-312.64163"
         transform="matrix(0,1,-1,0,0,0)" />
      <path
         sodipodi:type="arc"
         style="fill:#546f77;fill-opacity:1;fill-rule:evenodd;stroke:none"
         id="path3927-4-5-7"
         sodipodi:cx="578.5"
         sodipodi:cy="-608"
         sodipodi:rx="48.5"
         sodipodi:ry="43"
         d="m 578.41403,-650.99993 c 26.78577,-0.0421 48.53841,19.1755 48.58589,42.92371 0.0475,23.74821 -21.62818,43.03406 -48.41395,43.07615 -26.78577,0.0421 -48.53841,-19.1755 -48.58589,-42.92371 -0.0471,-23.53276 21.25094,-42.7276 47.79091,-43.07163"
         transform="matrix(-1.084896,0,0,1.2265161,1093.431,1274.2225)"
         sodipodi:start="4.7106164"
         sodipodi:end="10.980955"
         sodipodi:open="true" />
      <path
         sodipodi:type="arc"
         style="fill:#333333;fill-opacity:1"
         id="path3929-9-5-2"
         sodipodi:cx="542.4375"
         sodipodi:cy="-516.1875"
         sodipodi:rx="1.6875"
         sodipodi:ry="1.6875"
         d="m 542.43451,-517.875 c 0.93198,-0.002 1.68884,0.75253 1.69049,1.68451 0.002,0.93198 -0.75253,1.68884 -1.68451,1.69049 -0.93198,0.002 -1.68884,-0.75253 -1.69049,-1.68451 -0.002,-0.92352 0.7394,-1.67681 1.66283,-1.69031"
         transform="matrix(11.432929,0,0,11.459597,-5735.8307,6442.8829)"
         sodipodi:start="4.7106164"
         sodipodi:end="10.980955"
         sodipodi:open="true" />
      <path
         sodipodi:type="arc"
         style="fill:#ad6131;fill-opacity:1;fill-rule:evenodd;stroke:none"
         id="path3933-0-9-7"
         sodipodi:cx="578.5"
         sodipodi:cy="-608"
         sodipodi:rx="48.5"
         sodipodi:ry="43"
         d="m 578.41403,-650.99993 c 26.78577,-0.0421 48.53841,19.1755 48.58589,42.92371 0.0475,23.74821 -21.62818,43.03406 -48.41395,43.07615 -26.78577,0.0421 -48.53841,-19.1755 -48.58589,-42.92371 -0.0471,-23.53276 21.25094,-42.7276 47.79091,-43.07163"
         transform="matrix(-1.084896,0,0,1.2265161,921.34802,1274.3485)"
         sodipodi:start="4.7106164"
         sodipodi:end="10.980955"
         sodipodi:open="true" />
      <path
         sodipodi:type="arc"
         style="fill:#333333;fill-opacity:1"
         id="path3935-77-5-0"
         sodipodi:cx="542.4375"
         sodipodi:cy="-516.1875"
         sodipodi:rx="1.6875"
         sodipodi:ry="1.6875"
         d="m 542.43451,-517.875 c 0.93198,-0.002 1.68884,0.75253 1.69049,1.68451 0.002,0.93198 -0.75253,1.68884 -1.68451,1.69049 -0.93198,0.002 -1.68884,-0.75253 -1.69049,-1.68451 -0.002,-0.92352 0.7394,-1.67681 1.66283,-1.69031"
         transform="matrix(11.432929,0,0,11.459597,-5908.2768,6443.009)"
         sodipodi:start="4.7106164"
         sodipodi:end="10.980955"
         sodipodi:open="true" />
      <path
         sodipodi:type="arc"
         style="fill:#b13434;fill-opacity:1;fill-rule:evenodd;stroke:none"
         id="path3939-9-1-6"
         sodipodi:cx="578.5"
         sodipodi:cy="-608"
         sodipodi:rx="48.5"
         sodipodi:ry="43"
         d="m 578.41403,-650.99993 c 26.78577,-0.0421 48.53841,19.1755 48.58589,42.92371 0.0475,23.74821 -21.62818,43.03406 -48.41395,43.07615 -26.78577,0.0421 -48.53841,-19.1755 -48.58589,-42.92371 -0.0471,-23.53276 21.25094,-42.7276 47.79091,-43.07163"
         transform="matrix(-1.084896,0,0,1.2265161,921.34202,1102.0511)"
         sodipodi:start="4.7106164"
         sodipodi:end="10.980955"
         sodipodi:open="true" />
      <path
         sodipodi:type="arc"
         style="fill:#333333;fill-opacity:1"
         id="path3941-2-6-9"
         sodipodi:cx="542.4375"
         sodipodi:cy="-516.1875"
         sodipodi:rx="1.6875"
         sodipodi:ry="1.6875"
         d="m 542.43451,-517.875 c 0.93198,-0.002 1.68884,0.75253 1.69049,1.68451 0.002,0.93198 -0.75253,1.68884 -1.68451,1.69049 -0.93198,0.002 -1.68884,-0.75253 -1.69049,-1.68451 -0.002,-0.92352 0.7394,-1.67681 1.66283,-1.69031"
         transform="matrix(11.432929,0,0,11.459597,-5908.2835,6270.7118)"
         sodipodi:start="4.7106164"
         sodipodi:end="10.980955"
         sodipodi:open="true" />
      <path
         sodipodi:type="arc"
         style="fill:#6d8c56;fill-opacity:1;fill-rule:evenodd;stroke:none"
         id="path3945-4-7-3"
         sodipodi:cx="578.5"
         sodipodi:cy="-608"
         sodipodi:rx="48.5"
         sodipodi:ry="43"
         d="m 578.41403,-650.99993 c 26.78577,-0.0421 48.53841,19.1755 48.58589,42.92371 0.0475,23.74821 -21.62818,43.03406 -48.41395,43.07615 -26.78577,0.0421 -48.53841,-19.1755 -48.58589,-42.92371 -0.0471,-23.53276 21.25094,-42.7276 47.79091,-43.07163"
         transform="matrix(-1.084896,0,0,1.2265161,1093.885,1102.0672)"
         sodipodi:start="4.7106164"
         sodipodi:end="10.980955"
         sodipodi:open="true" />
      <path
         sodipodi:type="arc"
         style="fill:#333333;fill-opacity:1"
         id="path3947-0-6-3"
         sodipodi:cx="542.4375"
         sodipodi:cy="-516.1875"
         sodipodi:rx="1.6875"
         sodipodi:ry="1.6875"
         d="m 542.43451,-517.875 c 0.93198,-0.002 1.68884,0.75253 1.69049,1.68451 0.002,0.93198 -0.75253,1.68884 -1.68451,1.69049 -0.93198,0.002 -1.68884,-0.75253 -1.69049,-1.68451 -0.002,-0.92352 0.7394,-1.67681 1.66283,-1.69031"
         transform="matrix(11.432929,0,0,11.459597,-5735.7401,6270.7279)"
         sodipodi:start="4.7106164"
         sodipodi:end="10.980955"
         sodipodi:open="true" />
      <text
         transform="scale(0.76280449,1.3109519)"
         sodipodi:linespacing="125%"
         id="text4542-41-42-3"
         y="567.4646"
         x="257.60995"
         style="font-size:100px;font-style:normal;font-weight:normal;line-height:125%;letter-spacing:0px;word-spacing:0px;fill:#c6be7a;fill-opacity:1;stroke:none;font-family:Sans"
         xml:space="preserve"><tspan
           y="567.4646"
           x="257.60995"
           id="tspan4544-63-1-1"
           sodipodi:role="line">SQUARES</tspan></text>
    </g>
  </g>
</svg>
