<?xml version="1.0" encoding="UTF-8" standalone="no"?>
<!-- Created with Inkscape (http://www.inkscape.org/) -->

<svg
   xmlns:dc="http://purl.org/dc/elements/1.1/"
   xmlns:cc="http://creativecommons.org/ns#"
   xmlns:rdf="http://www.w3.org/1999/02/22-rdf-syntax-ns#"
   xmlns:svg="http://www.w3.org/2000/svg"
   xmlns="http://www.w3.org/2000/svg"
   xmlns:sodipodi="http://sodipodi.sourceforge.net/DTD/sodipodi-0.dtd"
   xmlns:inkscape="http://www.inkscape.org/namespaces/inkscape"
   width="512"
   height="512"
   id="svg4324"
   version="1.1"
   inkscape:version="0.48.3.1 r9886"
   sodipodi:docname="Logo_3.svg">
  <defs
     id="defs4326" />
  <sodipodi:namedview
     id="base"
     pagecolor="#ffffff"
     bordercolor="#666666"
     borderopacity="1.0"
     inkscape:pageopacity="0.0"
     inkscape:pageshadow="2"
     inkscape:zoom="0.35"
     inkscape:cx="375"
     inkscape:cy="520"
     inkscape:document-units="px"
     inkscape:current-layer="capa1"
     showgrid="false"
     inkscape:window-width="1215"
     inkscape:window-height="1000"
     inkscape:window-x="65"
     inkscape:window-y="24"
     inkscape:window-maximized="1" />
  <metadata
     id="metadata4329">
    <rdf:RDF>
      <cc:Work
         rdf:about="">
        <dc:format>image/svg+xml</dc:format>
        <dc:type
           rdf:resource="http://purl.org/dc/dcmitype/StillImage" />
        <dc:title></dc:title>
      </cc:Work>
    </rdf:RDF>
  </metadata>
  <g
     inkscape:label="Capa 1"
     inkscape:groupmode="layer"
     id="capa1"
     transform="translate(0,-540.36218)">
    <g
       id="g4253"
       transform="translate(-2935.4106,-1770.7708)">
      <path
         transform="matrix(2.1068123,0,0,3.30112,2048.5954,371.3831)"
         d="m 661.5807,665.15302 c 0,41.99473 -53.34198,76.03819 -119.14265,76.03819 -65.80067,0 -119.14265,-34.04346 -119.14265,-76.03819 0,-41.99474 53.34198,-76.0382 119.14265,-76.0382 65.80067,0 119.14265,34.04346 119.14265,76.0382 z"
         sodipodi:ry="76.038193"
         sodipodi:rx="119.14265"
         sodipodi:cy="665.15302"
         sodipodi:cx="542.43805"
         id="path3193-3-05"
         style="fill:#b3b3b3;fill-opacity:1;stroke:#333333;stroke-width:3.78340316;stroke-miterlimit:4;stroke-opacity:1;stroke-dasharray:none"
         sodipodi:type="arc" />
      <g
         transform="translate(1995.3972,2371.2293)"
         id="g4159">
        <rect
           y="73.467293"
           x="1073.9875"
           height="44.585403"
           width="242.62717"
           id="rect3917-0-2-3-7-3-8"
           style="fill:#2e98ca;fill-opacity:1" />
        <rect
           transform="matrix(0,1,-1,0,0,0)"
           y="-1317.1021"
           x="73.242378"
           height="44.481655"
           width="243.19313"
           id="rect3919-0-6-6-35-5-8"
           style="fill:#e68a2d;fill-opacity:1" />
        <rect
           y="271.98303"
           x="1073.9233"
           height="44.585403"
           width="242.62717"
           id="rect3921-01-4-5-8-3-1"
           style="fill:#e7423c;fill-opacity:1" />
        <rect
           transform="matrix(0,1,-1,0,0,0)"
           y="-1118.3621"
           x="73.164803"
           height="44.481655"
           width="243.19313"
           id="rect3923-0-9-9-76-0-7"
           style="fill:#3ea145;fill-opacity:1" />
        <path
           sodipodi:open="true"
           sodipodi:end="10.980955"
           sodipodi:start="4.7106164"
           transform="matrix(-1.2506555,0,0,1.4139134,2018.447,1154.7292)"
           d="m 578.41403,-650.99993 c 26.78577,-0.0421 48.53841,19.1755 48.58589,42.92371 0.0475,23.74821 -21.62818,43.03406 -48.41395,43.07615 -26.78577,0.0421 -48.53841,-19.1755 -48.58589,-42.92371 -0.0471,-23.53276 21.25094,-42.7276 47.79091,-43.07163"
           sodipodi:ry="43"
           sodipodi:rx="48.5"
           sodipodi:cy="-608"
           sodipodi:cx="578.5"
           id="path3927-4-5-5-0-8-2"
           style="fill:#2e98ca;fill-opacity:1;fill-rule:evenodd;stroke:none"
           sodipodi:type="arc" />
        <path
           sodipodi:open="true"
           sodipodi:end="10.980955"
           sodipodi:start="4.7106164"
           transform="matrix(13.179747,0,0,13.21049,-5854.2459,7113.1008)"
           d="m 542.43451,-517.875 c 0.93198,-0.002 1.68884,0.75253 1.69049,1.68451 0.002,0.93198 -0.75253,1.68884 -1.68451,1.69049 -0.93198,0.002 -1.68884,-0.75253 -1.69049,-1.68451 -0.002,-0.92352 0.7394,-1.67681 1.66283,-1.69031"
           sodipodi:ry="1.6875"
           sodipodi:rx="1.6875"
           sodipodi:cy="-516.1875"
           sodipodi:cx="542.4375"
           id="path3929-9-5-4-5-73-5"
           style="fill:#333333;fill-opacity:1"
           sodipodi:type="arc" />
        <path
           sodipodi:open="true"
           sodipodi:end="10.980955"
           sodipodi:start="4.7106164"
           transform="matrix(-1.2506555,0,0,1.4139134,1820.0717,1154.8743)"
           d="m 578.41403,-650.99993 c 26.78577,-0.0421 48.53841,19.1755 48.58589,42.92371 0.0475,23.74821 -21.62818,43.03406 -48.41395,43.07615 -26.78577,0.0421 -48.53841,-19.1755 -48.58589,-42.92371 -0.0471,-23.53276 21.25094,-42.7276 47.79091,-43.07163"
           sodipodi:ry="43"
           sodipodi:rx="48.5"
           sodipodi:cy="-608"
           sodipodi:cx="578.5"
           id="path3933-0-9-8-3-0-0"
           style="fill:#e68a2d;fill-opacity:1;fill-rule:evenodd;stroke:none"
           sodipodi:type="arc" />
        <path
           sodipodi:open="true"
           sodipodi:end="10.980955"
           sodipodi:start="4.7106164"
           transform="matrix(13.179747,0,0,13.21049,-6053.0398,7113.2462)"
           d="m 542.43451,-517.875 c 0.93198,-0.002 1.68884,0.75253 1.69049,1.68451 0.002,0.93198 -0.75253,1.68884 -1.68451,1.69049 -0.93198,0.002 -1.68884,-0.75253 -1.69049,-1.68451 -0.002,-0.92352 0.7394,-1.67681 1.66283,-1.69031"
           sodipodi:ry="1.6875"
           sodipodi:rx="1.6875"
           sodipodi:cy="-516.1875"
           sodipodi:cx="542.4375"
           id="path3935-77-5-1-8-1-2"
           style="fill:#333333;fill-opacity:1"
           sodipodi:type="arc" />
        <path
           sodipodi:open="true"
           sodipodi:end="10.980955"
           sodipodi:start="4.7106164"
           transform="matrix(-1.2506555,0,0,1.4139134,1820.0648,956.25188)"
           d="m 578.41403,-650.99993 c 26.78577,-0.0421 48.53841,19.1755 48.58589,42.92371 0.0475,23.74821 -21.62818,43.03406 -48.41395,43.07615 -26.78577,0.0421 -48.53841,-19.1755 -48.58589,-42.92371 -0.0471,-23.53276 21.25094,-42.7276 47.79091,-43.07163"
           sodipodi:ry="43"
           sodipodi:rx="48.5"
           sodipodi:cy="-608"
           sodipodi:cx="578.5"
           id="path3939-9-1-1-29-6-1"
           style="fill:#e7423c;fill-opacity:1;fill-rule:evenodd;stroke:none"
           sodipodi:type="arc" />
        <path
           sodipodi:open="true"
           sodipodi:end="10.980955"
           sodipodi:start="4.7106164"
           transform="matrix(13.179747,0,0,13.21049,-6053.0475,6914.6239)"
           d="m 542.43451,-517.875 c 0.93198,-0.002 1.68884,0.75253 1.69049,1.68451 0.002,0.93198 -0.75253,1.68884 -1.68451,1.69049 -0.93198,0.002 -1.68884,-0.75253 -1.69049,-1.68451 -0.002,-0.92352 0.7394,-1.67681 1.66283,-1.69031"
           sodipodi:ry="1.6875"
           sodipodi:rx="1.6875"
           sodipodi:cy="-516.1875"
           sodipodi:cx="542.4375"
           id="path3941-2-6-6-8-7-1"
           style="fill:#333333;fill-opacity:1"
           sodipodi:type="arc" />
        <path
           sodipodi:open="true"
           sodipodi:end="10.980955"
           sodipodi:start="4.7106164"
           transform="matrix(-1.2506555,0,0,1.4139134,2018.9703,956.27038)"
           d="m 578.41403,-650.99993 c 26.78577,-0.0421 48.53841,19.1755 48.58589,42.92371 0.0475,23.74821 -21.62818,43.03406 -48.41395,43.07615 -26.78577,0.0421 -48.53841,-19.1755 -48.58589,-42.92371 -0.0471,-23.53276 21.25094,-42.7276 47.79091,-43.07163"
           sodipodi:ry="43"
           sodipodi:rx="48.5"
           sodipodi:cy="-608"
           sodipodi:cx="578.5"
           id="path3945-4-7-3-28-3-0"
           style="fill:#3ea145;fill-opacity:1;fill-rule:evenodd;stroke:none"
           sodipodi:type="arc" />
        <path
           sodipodi:open="true"
           sodipodi:end="10.980955"
           sodipodi:start="4.7106164"
           transform="matrix(13.179747,0,0,13.21049,-5854.1414,6914.6425)"
           d="m 542.43451,-517.875 c 0.93198,-0.002 1.68884,0.75253 1.69049,1.68451 0.002,0.93198 -0.75253,1.68884 -1.68451,1.69049 -0.93198,0.002 -1.68884,-0.75253 -1.69049,-1.68451 -0.002,-0.92352 0.7394,-1.67681 1.66283,-1.69031"
           sodipodi:ry="1.6875"
           sodipodi:rx="1.6875"
           sodipodi:cy="-516.1875"
           sodipodi:cx="542.4375"
           id="path3947-0-6-4-6-5-1"
           style="fill:#333333;fill-opacity:1"
           sodipodi:type="arc" />
      </g>
    </g>
  </g>
</svg>
