<?xml version="1.0" encoding="UTF-8" standalone="no"?>
<!-- Created with Inkscape (http://www.inkscape.org/) -->

<svg
   xmlns:dc="http://purl.org/dc/elements/1.1/"
   xmlns:cc="http://creativecommons.org/ns#"
   xmlns:rdf="http://www.w3.org/1999/02/22-rdf-syntax-ns#"
   xmlns:svg="http://www.w3.org/2000/svg"
   xmlns="http://www.w3.org/2000/svg"
   xmlns:sodipodi="http://sodipodi.sourceforge.net/DTD/sodipodi-0.dtd"
   xmlns:inkscape="http://www.inkscape.org/namespaces/inkscape"
   width="744.09448819"
   height="1052.3622047"
   id="svg4358"
   version="1.1"
   inkscape:version="0.48.3.1 r9886"
   sodipodi:docname="Nou document 2">
  <defs
     id="defs4360" />
  <sodipodi:namedview
     id="base"
     pagecolor="#ffffff"
     bordercolor="#666666"
     borderopacity="1.0"
     inkscape:pageopacity="0.0"
     inkscape:pageshadow="2"
     inkscape:zoom="0.35"
     inkscape:cx="375"
     inkscape:cy="511.42857"
     inkscape:document-units="px"
     inkscape:current-layer="capa1"
     showgrid="false"
     inkscape:window-width="469"
     inkscape:window-height="421"
     inkscape:window-x="67"
     inkscape:window-y="80"
     inkscape:window-maximized="0" />
  <metadata
     id="metadata4363">
    <rdf:RDF>
      <cc:Work
         rdf:about="">
        <dc:format>image/svg+xml</dc:format>
        <dc:type
           rdf:resource="http://purl.org/dc/dcmitype/StillImage" />
        <dc:title></dc:title>
      </cc:Work>
    </rdf:RDF>
  </metadata>
  <g
     inkscape:label="Capa 1"
     inkscape:groupmode="layer"
     id="capa1">
    <g
       id="g4329"
       transform="matrix(6.6691146,0,0,6.6691146,-39.24848,-2040.834)">
      <path
         transform="matrix(1.4478373,0,0,0.14125243,355.39928,336.72443)"
         sodipodi:open="true"
         sodipodi:end="6.280855"
         sodipodi:start="0"
         d="m -175.46333,277.9407 c 0,147.15313 -11.63817,266.44431 -25.99457,266.44431 -14.3564,0 -25.99457,-119.29118 -25.99457,-266.44431 0,-147.15312 11.63817,-266.444301 25.99457,-266.444301 14.33275,0 25.9611,118.913101 25.9945,265.823411"
         sodipodi:ry="266.44431"
         sodipodi:rx="25.994568"
         sodipodi:cy="277.9407"
         sodipodi:cx="-201.4579"
         id="path7080"
         style="fill:#b3b3b3;fill-opacity:1;stroke:#333333;stroke-width:3.31690788;stroke-miterlimit:4;stroke-opacity:1;stroke-dasharray:none"
         sodipodi:type="arc" />
      <path
         transform="matrix(-0.05422654,-0.14043811,-0.14043811,0.05422654,130.30542,279.11646)"
         sodipodi:open="true"
         sodipodi:end="1.7826616"
         sodipodi:start="0"
         d="m -280.30924,553.7793 c 0,30.45453 -22.28803,55.1428 -49.7817,55.1428 -3.51896,0 -7.02801,-0.4133 -10.46829,-1.23297"
         sodipodi:ry="55.142803"
         sodipodi:rx="49.7817"
         sodipodi:cy="553.7793"
         sodipodi:cx="-330.09094"
         id="path6601-8"
         style="fill:none;stroke:#232323;stroke-width:6;stroke-miterlimit:4;stroke-opacity:0.99230766;stroke-dasharray:none"
         sodipodi:type="arc" />
      <g
         style="stroke:none"
         id="g3536">
        <rect
           style="fill:#333333;fill-opacity:1;stroke:none"
           id="rect6465"
           width="51.473343"
           height="24.433958"
           x="36.403435"
           y="358.55981"
           ry="12.216979" />
        <rect
           style="fill:#333333;fill-opacity:1;stroke:none"
           id="rect6465-3"
           width="43.359287"
           height="20.709087"
           x="338.77551"
           y="-201.87663"
           ry="10.354544"
           transform="matrix(-0.39349564,0.91932648,-0.97421682,-0.22561381,0,0)" />
        <rect
           style="fill:#333333;fill-opacity:1;stroke:none"
           id="rect6465-3-9"
           width="43.272106"
           height="20.795969"
           x="368.1044"
           y="-88.84156"
           ry="10.397985"
           transform="matrix(0.40631202,0.9137344,0.97208266,-0.23463864,0,0)" />
      </g>
      <rect
         transform="matrix(0.72943911,-0.68404575,0.68404575,0.72943911,0,0)"
         y="315.53644"
         x="-200.25615"
         height="2.2116268"
         width="6.8496666"
         id="rect7011"
         style="fill:#009b58;fill-opacity:1;stroke:none" />
      <rect
         transform="matrix(0.68404575,0.72943911,-0.72943911,0.68404575,0,0)"
         y="200.25615"
         x="317.74808"
         height="2.2116268"
         width="6.8496666"
         id="rect7011-9"
         style="fill:#d3412c;fill-opacity:1;stroke:none" />
      <rect
         transform="matrix(0.68404575,0.72943911,-0.72943911,0.68404575,0,0)"
         y="191.19485"
         x="317.74808"
         height="2.2116268"
         width="6.8496666"
         id="rect7011-0"
         style="fill:#1469eb;fill-opacity:1;stroke:none" />
      <rect
         transform="matrix(0.72943911,-0.68404575,0.68404575,0.72943911,0,0)"
         y="324.59775"
         x="-200.25615"
         height="2.2116268"
         width="6.8496666"
         id="rect7011-1"
         style="fill:#ffb608;fill-opacity:1;stroke:none" />
      <path
         transform="matrix(0.08000193,0,0,0.09050723,86.114035,355.04214)"
         d="m -82.714211,92.34127 c 0,20.93749 -19.201989,37.91068 -42.888849,37.91068 -23.68685,0 -42.88885,-16.97319 -42.88885,-37.91068 0,-20.937489 19.202,-37.910678 42.88885,-37.910678 23.68686,0 42.888849,16.973189 42.888849,37.910678 z"
         sodipodi:ry="37.910679"
         sodipodi:rx="42.888847"
         sodipodi:cy="92.34127"
         sodipodi:cx="-125.60306"
         id="path6837"
         style="fill:#d3412c;fill-opacity:1;stroke:#000000;stroke-width:6;stroke-miterlimit:4;stroke-opacity:0;stroke-dasharray:none"
         sodipodi:type="arc" />
      <path
         transform="matrix(0.08000193,0,0,0.09050723,86.114035,366.83884)"
         d="m -82.714211,92.34127 c 0,20.93749 -19.201989,37.91068 -42.888849,37.91068 -23.68685,0 -42.88885,-16.97319 -42.88885,-37.91068 0,-20.937489 19.202,-37.910678 42.88885,-37.910678 23.68686,0 42.888849,16.973189 42.888849,37.910678 z"
         sodipodi:ry="37.910679"
         sodipodi:rx="42.888847"
         sodipodi:cy="92.34127"
         sodipodi:cx="-125.60306"
         id="path6837-4"
         style="fill:#1469eb;fill-opacity:1;stroke:#000000;stroke-width:6;stroke-miterlimit:4;stroke-opacity:0;stroke-dasharray:none"
         sodipodi:type="arc" />
      <path
         transform="matrix(0.08000193,0,0,0.09050723,92.012386,360.94049)"
         d="m -82.714211,92.34127 c 0,20.93749 -19.201989,37.91068 -42.888849,37.91068 -23.68685,0 -42.88885,-16.97319 -42.88885,-37.91068 0,-20.937489 19.202,-37.910678 42.88885,-37.910678 23.68686,0 42.888849,16.973189 42.888849,37.910678 z"
         sodipodi:ry="37.910679"
         sodipodi:rx="42.888847"
         sodipodi:cy="92.34127"
         sodipodi:cx="-125.60306"
         id="path6837-9"
         style="fill:#009b58;fill-opacity:1;stroke:#000000;stroke-width:6;stroke-miterlimit:4;stroke-opacity:0;stroke-dasharray:none"
         sodipodi:type="arc" />
      <path
         transform="matrix(0.08000193,0,0,0.09050723,80.215686,360.94049)"
         d="m -82.714211,92.34127 c 0,20.93749 -19.201989,37.91068 -42.888849,37.91068 -23.68685,0 -42.88885,-16.97319 -42.88885,-37.91068 0,-20.937489 19.202,-37.910678 42.88885,-37.910678 23.68686,0 42.888849,16.973189 42.888849,37.910678 z"
         sodipodi:ry="37.910679"
         sodipodi:rx="42.888847"
         sodipodi:cy="92.34127"
         sodipodi:cx="-125.60306"
         id="path6837-99"
         style="fill:#ffb608;fill-opacity:1;stroke:#000000;stroke-width:6;stroke-miterlimit:4;stroke-opacity:0;stroke-dasharray:none"
         sodipodi:type="arc" />
      <path
         transform="matrix(0.09502565,0,0,0.14429821,100.11852,369.16564)"
         d="m -237.42041,41.793701 c 0,5.710225 -7.0293,10.339276 -15.70038,10.339276 -8.67108,0 -15.70038,-4.629051 -15.70038,-10.339276 0,-5.710224 7.0293,-10.339276 15.70038,-10.339276 8.67108,0 15.70038,4.629052 15.70038,10.339276 z"
         sodipodi:ry="10.339276"
         sodipodi:rx="15.700382"
         sodipodi:cy="41.793701"
         sodipodi:cx="-253.12079"
         id="path6883"
         style="fill:#333333;fill-opacity:1;stroke:#000000;stroke-width:6;stroke-miterlimit:4;stroke-opacity:0;stroke-dasharray:none"
         sodipodi:type="arc" />
      <path
         transform="matrix(0.09502565,0,0,0.14429821,94.220167,363.26729)"
         d="m -237.42041,41.793701 c 0,5.710225 -7.0293,10.339276 -15.70038,10.339276 -8.67108,0 -15.70038,-4.629051 -15.70038,-10.339276 0,-5.710224 7.0293,-10.339276 15.70038,-10.339276 8.67108,0 15.70038,4.629052 15.70038,10.339276 z"
         sodipodi:ry="10.339276"
         sodipodi:rx="15.700382"
         sodipodi:cy="41.793701"
         sodipodi:cx="-253.12079"
         id="path6883-0"
         style="fill:#333333;fill-opacity:1;stroke:#000000;stroke-width:6;stroke-miterlimit:4;stroke-opacity:0;stroke-dasharray:none"
         sodipodi:type="arc" />
      <path
         transform="matrix(0.09502565,0,0,0.14429821,100.11852,357.36894)"
         d="m -237.42041,41.793701 c 0,5.710225 -7.0293,10.339276 -15.70038,10.339276 -8.67108,0 -15.70038,-4.629051 -15.70038,-10.339276 0,-5.710224 7.0293,-10.339276 15.70038,-10.339276 8.67108,0 15.70038,4.629052 15.70038,10.339276 z"
         sodipodi:ry="10.339276"
         sodipodi:rx="15.700382"
         sodipodi:cy="41.793701"
         sodipodi:cx="-253.12079"
         id="path6883-6"
         style="fill:#333333;fill-opacity:1;stroke:#000000;stroke-width:6;stroke-miterlimit:4;stroke-opacity:0;stroke-dasharray:none"
         sodipodi:type="arc" />
      <path
         transform="matrix(0.09502565,0,0,0.14429821,106.01687,363.26729)"
         d="m -237.42041,41.793701 c 0,5.710225 -7.0293,10.339276 -15.70038,10.339276 -8.67108,0 -15.70038,-4.629051 -15.70038,-10.339276 0,-5.710224 7.0293,-10.339276 15.70038,-10.339276 8.67108,0 15.70038,4.629052 15.70038,10.339276 z"
         sodipodi:ry="10.339276"
         sodipodi:rx="15.700382"
         sodipodi:cy="41.793701"
         sodipodi:cx="-253.12079"
         id="path6883-1"
         style="fill:#333333;fill-opacity:1;stroke:#000000;stroke-width:6;stroke-miterlimit:4;stroke-opacity:0;stroke-dasharray:none"
         sodipodi:type="arc" />
      <rect
         ry="0.58718169"
         y="360.6196"
         x="49.420513"
         height="5.4447761"
         width="4.9121432"
         id="rect6917"
         style="fill:#b3b3b3;fill-opacity:1;stroke:#000000;stroke-width:0.42764068;stroke-miterlimit:4;stroke-opacity:0;stroke-dasharray:none" />
      <path
         transform="matrix(0.00357858,-0.03377908,0.05440756,0.00222177,47.295439,350.06947)"
         inkscape:transform-center-y="0.31883305"
         inkscape:transform-center-x="1.3847041"
         d="m -449.56702,159.3551 -40.73041,-20.13901 -40.7304,-20.13901 37.80609,-25.204061 37.8061,-25.204063 2.92431,45.343074 z"
         inkscape:randomized="0"
         inkscape:rounded="0"
         inkscape:flatsided="false"
         sodipodi:arg2="2.0299913"
         sodipodi:arg1="0.98279372"
         sodipodi:r2="26.233221"
         sodipodi:r1="52.466442"
         sodipodi:cy="115.70038"
         sodipodi:cx="-478.67017"
         sodipodi:sides="3"
         id="path6919"
         style="fill:#b3b3b3;fill-opacity:1;stroke:#000000;stroke-width:6;stroke-miterlimit:4;stroke-opacity:0;stroke-dasharray:none"
         sodipodi:type="star" />
      <rect
         transform="scale(1,-1)"
         ry="0.55140001"
         y="-378.3649"
         x="49.420513"
         height="5.1129823"
         width="4.9121432"
         id="rect6917-2"
         style="fill:#b3b3b3;fill-opacity:1;stroke:#000000;stroke-width:0.41440609;stroke-miterlimit:4;stroke-opacity:0;stroke-dasharray:none" />
      <path
         transform="matrix(0.00357858,0.03172065,0.05440756,-0.00208638,47.295439,388.27212)"
         inkscape:transform-center-y="0.31883305"
         inkscape:transform-center-x="1.3847041"
         d="m -449.56702,159.3551 -40.73041,-20.13901 -40.7304,-20.13901 37.80609,-25.204061 37.8061,-25.204063 2.92431,45.343074 z"
         inkscape:randomized="0"
         inkscape:rounded="0"
         inkscape:flatsided="false"
         sodipodi:arg2="2.0299913"
         sodipodi:arg1="0.98279372"
         sodipodi:r2="26.233221"
         sodipodi:r1="52.466442"
         sodipodi:cy="115.70038"
         sodipodi:cx="-478.67017"
         sodipodi:sides="3"
         id="path6919-9"
         style="fill:#b3b3b3;fill-opacity:1;stroke:#000000;stroke-width:6;stroke-miterlimit:4;stroke-opacity:0;stroke-dasharray:none"
         sodipodi:type="star" />
      <rect
         transform="matrix(0,-1,1,0,0,0)"
         ry="0.55140001"
         y="43.207947"
         x="-372.08148"
         height="5.1129823"
         width="4.9121432"
         id="rect6917-27"
         style="fill:#b3b3b3;fill-opacity:1;stroke:#000000;stroke-width:0.41440609;stroke-miterlimit:4;stroke-opacity:0;stroke-dasharray:none" />
      <path
         transform="matrix(-0.03172065,-0.00357858,0.00208638,-0.05440756,33.300721,374.20655)"
         inkscape:transform-center-y="0.31883305"
         inkscape:transform-center-x="1.3847041"
         d="m -449.56702,159.3551 -40.73041,-20.13901 -40.7304,-20.13901 37.80609,-25.204061 37.8061,-25.204063 2.92431,45.343074 z"
         inkscape:randomized="0"
         inkscape:rounded="0"
         inkscape:flatsided="false"
         sodipodi:arg2="2.0299913"
         sodipodi:arg1="0.98279372"
         sodipodi:r2="26.233221"
         sodipodi:r1="52.466442"
         sodipodi:cy="115.70038"
         sodipodi:cx="-478.67017"
         sodipodi:sides="3"
         id="path6919-0"
         style="fill:#b3b3b3;fill-opacity:1;stroke:#000000;stroke-width:6;stroke-miterlimit:4;stroke-opacity:0;stroke-dasharray:none"
         sodipodi:type="star" />
      <rect
         transform="matrix(0,-1,-1,0,0,0)"
         ry="0.5424546"
         y="-60.548401"
         x="-372.08148"
         height="5.0300336"
         width="4.9121432"
         id="rect6917-23"
         style="fill:#b3b3b3;fill-opacity:1;stroke:#000000;stroke-width:0.41103089;stroke-miterlimit:4;stroke-opacity:0;stroke-dasharray:none" />
      <path
         transform="matrix(0.03120605,-0.00357858,-0.00205253,-0.05440756,70.2949,374.20655)"
         inkscape:transform-center-y="0.31883305"
         inkscape:transform-center-x="1.3847041"
         d="m -449.56702,159.3551 -40.73041,-20.13901 -40.7304,-20.13901 37.80609,-25.204061 37.8061,-25.204063 2.92431,45.343074 z"
         inkscape:randomized="0"
         inkscape:rounded="0"
         inkscape:flatsided="false"
         sodipodi:arg2="2.0299913"
         sodipodi:arg1="0.98279372"
         sodipodi:r2="26.233221"
         sodipodi:r1="52.466442"
         sodipodi:cy="115.70038"
         sodipodi:cx="-478.67017"
         sodipodi:sides="3"
         id="path6919-8"
         style="fill:#b3b3b3;fill-opacity:1;stroke:#000000;stroke-width:6;stroke-miterlimit:4;stroke-opacity:0;stroke-dasharray:none"
         sodipodi:type="star" />
      <path
         transform="matrix(0.09025865,0.1068956,0.17742529,-0.07104702,-7.0666957,418.69394)"
         sodipodi:open="true"
         sodipodi:end="1.7826616"
         sodipodi:start="0"
         d="m -280.30924,553.7793 c 0,30.45453 -22.28803,55.1428 -49.7817,55.1428 -3.51896,0 -7.02801,-0.4133 -10.46829,-1.23297"
         sodipodi:ry="55.142803"
         sodipodi:rx="49.7817"
         sodipodi:cy="553.7793"
         sodipodi:cx="-330.09094"
         id="path6601-8-7"
         style="fill:none;stroke:#232323;stroke-width:6;stroke-miterlimit:4;stroke-opacity:0.99230766;stroke-dasharray:none"
         sodipodi:type="arc" />
    </g>
  </g>
</svg>
